<?xml version="1.0" encoding="utf-8"?>
<!-- Generator: Adobe Illustrator 24.3.0, SVG Export Plug-In . SVG Version: 6.00 Build 0)  -->
<svg version="1.1" baseProfile="tiny" id="Layer_1" xmlns="http://www.w3.org/2000/svg" xmlns:xlink="http://www.w3.org/1999/xlink"
	 x="0px" y="0px" viewBox="0 0 1133.7 215.9" overflow="visible" xml:space="preserve">
<g>
	<g>
		<path d="M44.6,162V57.2h23.2v89.2h24.1V162H44.6z"/>
		<path d="M225.8,163.6c-7.2,0-13-1.5-17.1-4.5c-4.2-3-7.2-7.3-8.9-12.7c-1.8-5.5-2.7-11.8-2.7-19V92.2c0-7.4,0.9-13.8,2.8-19.3
			c1.9-5.4,5.2-9.6,9.8-12.6c4.6-3,10.9-4.5,18.8-4.5c7.8,0,13.9,1.3,18.3,3.9c4.4,2.6,7.6,6.2,9.5,10.7c1.9,4.6,2.8,9.9,2.8,16v6.7
			h-22.6v-8.5c0-2.2-0.2-4.3-0.5-6.2c-0.3-1.9-1-3.4-2.1-4.6c-1.1-1.2-2.8-1.7-5.2-1.7c-2.5,0-4.3,0.7-5.4,2c-1.1,1.3-1.8,3-2.1,5
			c-0.3,2-0.5,4.1-0.5,6.2v48.5c0,2.3,0.2,4.5,0.7,6.5c0.5,2,1.3,3.7,2.6,4.9c1.3,1.3,3,1.9,5.4,1.9c2.4,0,4.3-0.6,5.6-1.9
			c1.3-1.3,2.2-3,2.7-5c0.5-2.1,0.8-4.3,0.8-6.6v-12.3h-9.4v-13.6h30.3V162h-15.3l-1.3-8.7c-1.4,2.9-3.4,5.4-6.1,7.3
			C234,162.6,230.4,163.6,225.8,163.6z"/>
		<path d="M274,162V57.2h23.2V162H274z"/>
		<path d="M312.8,162V57.2h16.3l21.5,50.5V57.2h19.2V162h-15.7l-21.5-54.4V162H312.8z"/>
		<path d="M427,162L414.3,57.2h19.7l6.2,61.1l7.9-61h15.4l8.3,60.6l6.3-60.7h19.4L484.9,162h-20.2l-8.9-63.3l-8.4,63.3H427z"/>
		<path d="M508.4,162V57.2h23.2V162H508.4z"/>
		<path d="M556.6,162V74.4h-15.8V57.2h54.7v17.2h-15.7V162H556.6z"/>
		<path d="M605.2,162V57.2h23.2v42.4h16.2V57.2h23.3V162h-23.3v-45.8h-16.2V162H605.2z"/>
		<path d="M725.2,162L712.6,57.2h19.7l6.2,61.1l7.9-61h15.4l8.3,60.6l6.3-60.7h19.4L783.2,162H763l-8.9-63.3l-8.4,63.3H725.2z"/>
		<path d="M799.3,162l19.8-104.8h26.4L865,162h-21.4l-3.5-22.1h-15.4l-3.6,22.1H799.3z M826.8,126.1H838l-5.6-40.9L826.8,126.1z"/>
		<path d="M874.6,162V57.2h23.2v89.2h24.1V162H874.6z"/>
		<path d="M930.9,162V57.2h23.2v89.2h24.1V162H930.9z"/>
		<path d="M987.2,162V57.2h47.1V73h-23.9v26h18.2v16h-18.2v31.3h24.2V162H987.2z"/>
		<path d="M1054.5,162V74.4h-15.8V57.2h54.7v17.2h-15.7V162H1054.5z"/>
	</g>
	<g id="Layer_x0020_1">
		<g id="_1421394342400">
			<g>
				<polygon fill="#343434" points="139.9,48 139.2,50.7 139.2,126.7 139.9,127.5 175.2,106.6 				"/>
				<polygon fill="#8C8C8C" points="139.9,48 104.6,106.6 139.9,127.5 139.9,90.6 				"/>
				<polygon fill="#3C3C3B" points="139.9,134.1 139.5,134.7 139.5,161.7 139.9,163 175.2,113.3 				"/>
				<polygon fill="#8C8C8C" points="139.9,163 139.9,134.1 104.6,113.3 				"/>
				<polygon fill="#141414" points="139.9,127.5 175.2,106.6 139.9,90.6 				"/>
				<polygon fill="#393939" points="104.6,106.6 139.9,127.5 139.9,90.6 				"/>
			</g>
		</g>
	</g>
</g>
</svg>
