<svg width="256" height="256" viewBox="0 0 256 256" fill="none" xmlns="http://www.w3.org/2000/svg">
<rect width="256" height="256" fill="#F3E7C7"/>
<path fill-rule="evenodd" clip-rule="evenodd" d="M34.5137 117.805C25.5238 126.795 25.5238 141.371 34.5138 150.361L114.679 230.527C123.669 239.516 138.245 239.516 147.235 230.527L221.486 156.275C230.476 147.285 230.476 132.71 221.486 123.72L125.043 27.2762L34.5137 117.805ZM52.7258 122.623C46.4328 128.916 46.4328 139.119 52.7258 145.412L120.054 212.74C126.347 219.033 136.55 219.033 142.843 212.74L185.147 170.435C191.44 164.142 191.44 153.939 185.147 147.646L117.819 80.3185C111.526 74.0256 101.323 74.0256 95.0301 80.3185L52.7258 122.623Z" fill="#174EA6"/>
<path fill-rule="evenodd" clip-rule="evenodd" d="M138.569 37.2538L113.531 62.2911L101.751 50.5107L126.788 25.4734C135.778 16.4834 150.354 16.4834 159.344 25.4734L215.489 81.6185L203.709 93.3989L147.563 37.2538C145.08 34.77 141.053 34.77 138.569 37.2538Z" fill="#174EA6"/>
<circle cx="147.183" cy="176.464" r="10.9373" fill="#174EA6"/>
</svg>
